<svg width="45" height="45" viewBox="0 0 45 45" fill="none" xmlns="http://www.w3.org/2000/svg">
<path d="M8.65376 13.4624C7.33234 12.7805 6.44251 11.764 5.98429 10.4131C5.52606 9.06211 5.62584 7.74931 6.28362 6.47466C6.9414 5.20002 7.95359 4.35806 9.32019 3.9488C10.6868 3.53954 12.0308 3.67587 13.3522 4.3578C14.6736 5.03972 15.5635 6.05616 16.0217 7.40713C16.4799 8.75809 16.3801 10.0709 15.7224 11.3455C15.0646 12.6202 14.0524 13.4621 12.6858 13.8714C11.3192 14.2807 9.97519 14.1443 8.65376 13.4624ZM20.9074 10.5625C19.586 9.88058 18.6961 8.86414 18.2379 7.51318C17.7797 6.16221 17.8795 4.84941 18.5372 3.57476C19.195 2.30012 20.2072 1.45817 21.5738 1.04891C22.9404 0.639645 24.2844 0.775976 25.6058 1.4579C26.9273 2.13982 27.8171 3.15626 28.2753 4.50723C28.7335 5.85819 28.6338 7.171 27.976 8.44564C27.3182 9.72029 26.306 10.5622 24.9394 10.9715C23.5728 11.3808 22.2288 11.2444 20.9074 10.5625ZM32.2339 16.4076C30.9124 15.7256 30.0226 14.7092 29.5644 13.3582C29.1062 12.0073 29.2059 10.6945 29.8637 9.41982C30.5215 8.14517 31.5337 7.30322 32.9003 6.89396C34.2669 6.4847 35.6109 6.62103 36.9323 7.30295C38.2537 7.98487 39.1436 9.00131 39.6018 10.3523C40.06 11.7032 39.9602 13.016 39.3025 14.2907C38.6447 15.5653 37.6325 16.4073 36.2659 16.8166C34.8993 17.2258 33.5553 17.0895 32.2339 16.4076ZM36.97 28.075C35.6486 27.3931 34.7587 26.3767 34.3005 25.0257C33.8423 23.6747 33.942 22.3619 34.5998 21.0873C35.2576 19.8126 36.2698 18.9707 37.6364 18.5614C39.003 18.1522 40.347 18.2885 41.6684 18.9704C42.9898 19.6523 43.8797 20.6688 44.3379 22.0198C44.7961 23.3707 44.6964 24.6835 44.0386 25.9582C43.3808 27.2328 42.3686 28.0748 41.002 28.484C39.6354 28.8933 38.2914 28.757 36.97 28.075ZM3.31552 33.7661C1.89971 33.0355 0.982167 31.899 0.562883 30.3568C0.1436 28.8146 0.302003 27.3303 1.03809 25.9039C1.85249 24.3257 3.12355 23.2331 4.85126 22.6258C6.57898 22.0186 8.291 21.4225 9.98732 20.8376C11.3852 20.3676 12.7004 19.7492 13.9327 18.9825C15.1651 18.2157 16.4881 17.5822 17.9016 17.0819C19.001 16.65 20.14 16.4115 21.3187 16.3664C22.4973 16.3214 23.6215 16.5748 24.6913 17.1269C25.761 17.6789 26.6267 18.4331 27.2886 19.3896C27.9504 20.346 28.4238 21.3973 28.7088 22.5436C29.0886 23.9694 29.3269 25.4183 29.4239 26.8902C29.5209 28.3622 29.775 29.8192 30.1862 31.2612C30.6923 32.9827 31.1984 34.7235 31.7045 36.4835C32.2106 38.2435 32.0565 39.9125 31.2421 41.4907C30.506 42.9171 29.388 43.9062 27.888 44.458C26.3881 45.0098 24.9302 44.9204 23.5144 44.1898C21.8155 43.313 20.2027 42.3078 18.6761 41.1742C17.1496 40.0405 15.5368 39.0353 13.8378 38.1585C12.1389 37.2818 10.3851 36.5497 8.57668 35.9623C6.76822 35.3749 5.0145 34.6429 3.31552 33.7661Z" fill="#FE902A"/>
</svg>
