<svg width="17" height="17" viewBox="0 0 17 17" fill="none" xmlns="http://www.w3.org/2000/svg">
<mask id="mask0_9_1014" style="mask-type:alpha" maskUnits="userSpaceOnUse" x="0" y="0" width="17" height="17">
<rect width="17" height="17" fill="#FE902A"/>
</mask>
<g mask="url(#mask0_9_1014)">
<path d="M7.79167 8.49967C7.0125 8.49967 6.34549 8.22224 5.79063 7.66738C5.23576 7.11252 4.95833 6.44551 4.95833 5.66634C4.95833 4.88717 5.23576 4.22016 5.79063 3.6653C6.34549 3.11044 7.0125 2.83301 7.79167 2.83301C8.57083 2.83301 9.23785 3.11044 9.79271 3.6653C10.3476 4.22016 10.625 4.88717 10.625 5.66634C10.625 6.44551 10.3476 7.11252 9.79271 7.66738C9.23785 8.22224 8.57083 8.49967 7.79167 8.49967ZM7.79167 7.08301C8.18125 7.08301 8.51476 6.94429 8.79219 6.66686C9.06962 6.38943 9.20833 6.05592 9.20833 5.66634C9.20833 5.27676 9.06962 4.94325 8.79219 4.66582C8.51476 4.38839 8.18125 4.24967 7.79167 4.24967C7.40208 4.24967 7.06858 4.38839 6.79115 4.66582C6.51372 4.94325 6.375 5.27676 6.375 5.66634C6.375 6.05592 6.51372 6.38943 6.79115 6.66686C7.06858 6.94429 7.40208 7.08301 7.79167 7.08301ZM15.6542 16.6455L13.3875 14.3788C13.1396 14.5205 12.874 14.6386 12.5906 14.733C12.3073 14.8275 12.0062 14.8747 11.6875 14.8747C10.8021 14.8747 10.0495 14.5648 9.42969 13.945C8.8099 13.3252 8.5 12.5726 8.5 11.6872C8.5 10.8018 8.8099 10.0492 9.42969 9.42936C10.0495 8.80957 10.8021 8.49967 11.6875 8.49967C12.5729 8.49967 13.3255 8.80957 13.9453 9.42936C14.5651 10.0492 14.875 10.8018 14.875 11.6872C14.875 12.0059 14.8278 12.307 14.7333 12.5903C14.6389 12.8736 14.5208 13.1393 14.3792 13.3872L16.6458 15.6538L15.6542 16.6455ZM11.6875 13.458C12.1833 13.458 12.6024 13.2868 12.9448 12.9445C13.2872 12.6021 13.4583 12.183 13.4583 11.6872C13.4583 11.1913 13.2872 10.7722 12.9448 10.4299C12.6024 10.0875 12.1833 9.91634 11.6875 9.91634C11.1917 9.91634 10.7726 10.0875 10.4302 10.4299C10.0878 10.7722 9.91667 11.1913 9.91667 11.6872C9.91667 12.183 10.0878 12.6021 10.4302 12.9445C10.7726 13.2868 11.1917 13.458 11.6875 13.458ZM2.125 14.1663V12.2007C2.125 11.7993 2.22535 11.4275 2.42604 11.0851C2.62674 10.7427 2.90417 10.483 3.25833 10.3059C3.86042 9.99898 4.53924 9.73926 5.29479 9.52676C6.05035 9.31426 6.88854 9.20801 7.80938 9.20801C7.66771 9.42051 7.5467 9.64777 7.44635 9.88978C7.34601 10.1318 7.26632 10.3827 7.20729 10.6424C6.49896 10.7014 5.86736 10.8224 5.3125 11.0054C4.75764 11.1884 4.29132 11.3802 3.91354 11.5809C3.79549 11.64 3.70399 11.7255 3.63906 11.8377C3.57413 11.9498 3.54167 12.0709 3.54167 12.2007V12.7497H7.20729C7.26632 13.0094 7.34601 13.2573 7.44635 13.4934C7.5467 13.7295 7.66771 13.9538 7.80938 14.1663H2.125Z" fill="#FE902A"/>
</g>
</svg>
