<svg width="15" height="15" viewBox="0 0 15 15" fill="none" xmlns="http://www.w3.org/2000/svg">
<path d="M5.55169 14.5837L5.26836 12.317C5.11489 12.258 4.97027 12.1871 4.83451 12.1045C4.69874 12.0219 4.56593 11.9333 4.43607 11.8389L2.32878 12.7243L0.380859 9.3597L2.20482 7.97845C2.19301 7.89581 2.18711 7.81612 2.18711 7.73939V7.26126C2.18711 7.18453 2.19301 7.10484 2.20482 7.0222L0.380859 5.64095L2.32878 2.27637L4.43607 3.16178C4.56593 3.06734 4.70169 2.9788 4.84336 2.89616C4.98503 2.81352 5.12669 2.74269 5.26836 2.68366L5.55169 0.416992H9.44753L9.73086 2.68366C9.88433 2.74269 10.0289 2.81352 10.1647 2.89616C10.3005 2.9788 10.4333 3.06734 10.5632 3.16178L12.6704 2.27637L14.6184 5.64095L12.7944 7.0222C12.8062 7.10484 12.8121 7.18453 12.8121 7.26126V7.73939C12.8121 7.81612 12.8003 7.89581 12.7767 7.97845L14.6007 9.3597L12.6527 12.7243L10.5632 11.8389C10.4333 11.9333 10.2975 12.0219 10.1559 12.1045C10.0142 12.1871 9.87253 12.258 9.73086 12.317L9.44753 14.5837H5.55169ZM6.79128 13.167H8.19023L8.43815 11.2899C8.80412 11.1955 9.14353 11.0567 9.45638 10.8738C9.76923 10.6908 10.0555 10.4694 10.3152 10.2097L12.0684 10.9357L12.759 9.73158L11.2361 8.58053C11.2951 8.41526 11.3364 8.24112 11.36 8.05814C11.3836 7.87515 11.3954 7.68921 11.3954 7.50033C11.3954 7.31144 11.3836 7.1255 11.36 6.94251C11.3364 6.75953 11.2951 6.5854 11.2361 6.42012L12.759 5.26908L12.0684 4.06491L10.3152 4.80866C10.0555 4.53713 9.76923 4.30987 9.45638 4.12689C9.14353 3.9439 8.80412 3.80519 8.43815 3.71074L8.20794 1.83366H6.80898L6.56107 3.71074C6.1951 3.80519 5.85569 3.9439 5.54284 4.12689C5.22999 4.30987 4.94371 4.53123 4.68398 4.79095L2.93086 4.06491L2.24023 5.26908L3.76315 6.40241C3.70412 6.57949 3.6628 6.75658 3.63919 6.93366C3.61558 7.11074 3.60378 7.29963 3.60378 7.50033C3.60378 7.68921 3.61558 7.8722 3.63919 8.04928C3.6628 8.22637 3.70412 8.40345 3.76315 8.58053L2.24023 9.73158L2.93086 10.9357L4.68398 10.192C4.94371 10.4635 5.22999 10.6908 5.54284 10.8738C5.85569 11.0567 6.1951 11.1955 6.56107 11.2899L6.79128 13.167ZM7.53503 9.97949C8.21975 9.97949 8.80412 9.73748 9.28815 9.25345C9.77218 8.76942 10.0142 8.18505 10.0142 7.50033C10.0142 6.8156 9.77218 6.23123 9.28815 5.7472C8.80412 5.26317 8.21975 5.02116 7.53503 5.02116C6.8385 5.02116 6.25117 5.26317 5.77305 5.7472C5.29492 6.23123 5.05586 6.8156 5.05586 7.50033C5.05586 8.18505 5.29492 8.76942 5.77305 9.25345C6.25117 9.73748 6.8385 9.97949 7.53503 9.97949Z" fill="#FE902A"/>
</svg>
